<?xml version="1.0" standalone="no"?>
<!DOCTYPE svg PUBLIC "-//W3C//DTD SVG 1.1//EN" "http://www.w3.org/Graphics/SVG/1.1/DTD/svg11.dtd" >
<svg xmlns="http://www.w3.org/2000/svg" xmlns:xlink="http://www.w3.org/1999/xlink" version="1.1">
<metadata></metadata>
<defs>
<font id="aromabold" horiz-adv-x="1503" >
<font-face units-per-em="2048" ascent="1536" descent="-512" />
<missing-glyph horiz-adv-x="1024" />
<glyph horiz-adv-x="0" />
<glyph unicode="&#xd;" horiz-adv-x="1024" />
<glyph unicode=" "  horiz-adv-x="1024" />
<glyph unicode="&#x09;" horiz-adv-x="1024" />
<glyph unicode="&#xa0;" horiz-adv-x="1024" />
<glyph unicode="A" d="M0 336v41v63v656v110v41q0 68 27.5 127.5t75 105.5t112 73.5t137.5 31.5h19h2h67h484h16q74 -4 139.5 -31.5t113.5 -72.5t75.5 -105.5t27.5 -128.5v-41v-110v-656v-63v-41v-338q-78 0 -145.5 26.5t-117.5 72.5t-79.5 107.5t-29.5 131.5v41v63v47v74h-551v-74v-47v-63v-41 v-338q-78 0 -145.5 26.5t-119 72.5t-80 107.5t-28.5 131.5zM373 899h67h17h383h84v76v2v20v99v47v24v4q0 31 -25 53.5t-59 22.5h-383q-35 0 -59.5 -22.5t-24.5 -55.5v-26v-47v-99v-20v-78z" />
<glyph unicode="B" horiz-adv-x="1499" d="M0 336v41v63v47v144v465v110v41v338h373h67h484h16q74 -4 139.5 -31.5t113.5 -72.5t75.5 -105.5t27.5 -128.5v-41v-110v-37v-19q-4 -70 -35.5 -128t-84.5 -103q51 -41 82.5 -99.5t35.5 -125.5h2v-23v-2v-182v-41q0 -68 -27.5 -128.5t-75.5 -105.5t-113.5 -73.5 t-139.5 -30.5h-16h-551h-21q-74 4 -138 31.5t-111.5 74t-75 105.5t-27.5 127zM373 414q0 -33 24.5 -55.5t59.5 -22.5h383q35 0 59.5 22.5t24.5 55.5v131q0 31 -25 53.5t-59 22.5h-383q-35 0 -59.5 -23t-24.5 -53v-58v-47v-26zM373 1036q0 -33 24.5 -54t59.5 -21h383 q35 0 59.5 21.5t24.5 53.5v4v15v41v47v26q0 33 -25 55.5t-59 22.5h-320h-63h-84v-78v-26v-35v-12v-60z" />
<glyph unicode="C" d="M0 336v41v63v656v110v41q0 70 28.5 131.5t80 107.5t119 72.5t145.5 27.5h180h207h536q0 -70 -28.5 -131.5t-79.5 -108t-119 -73t-145 -26.5h-164h-45h-244h-31q-29 -4 -47 -23.5t-20 -45.5v-15v-20v-47v-99v-411v-99v-47v-20v-14q2 -29 23.5 -47.5t52.5 -22.5h14h90h162 h45h536q0 -70 -28.5 -131.5t-79.5 -107.5t-119 -72.5t-145 -26.5h-164h-387q-78 0 -145.5 26.5t-119 72.5t-80 107.5t-28.5 131.5z" />
<glyph unicode="D" d="M0 -2v338v41v63v47v609v47v63v41q0 70 28.5 131.5t80 107.5t119 72.5t145.5 26.5h180h207h164q76 0 143.5 -26.5t117.5 -71.5t79.5 -105.5t31.5 -130.5v-137v-778q0 -70 -28.5 -131.5t-79.5 -107.5t-119 -72.5t-145 -26.5h-164h-387h-373zM373 336h180h207h80 q35 0 59.5 22.5t24.5 55.5v755q0 33 -25 55.5t-59 22.5h-80h-303q-35 0 -59.5 -22.5t-24.5 -55.5v-26v-47v-99v-411v-99v-47v-63v-41z" />
<glyph unicode="E" d="M0 336v41v63v656v110v41v339h373h180h207h536q0 -70 -28.5 -131.5t-79.5 -108t-119 -73t-145 -26.5h-164h-387v-41v-63v-47v-135h536q0 -104 -60.5 -186.5t-158.5 -123.5q-72 -28 -146 -28h-5h-166v-37v-99v-47v-26q0 -33 24.5 -55.5t59.5 -22.5h96h137h70h536 q0 -70 -28.5 -131.5t-79.5 -107.5t-119 -72.5t-145 -26.5h-164h-387q-78 0 -145.5 26.5t-119 72.5t-80 107.5t-28.5 131.5z" />
<glyph unicode="F" horiz-adv-x="1505" d="M0 0v338v41v63v656v110v41v338h373h180h207h536q0 -70 -28.5 -131t-79.5 -107t-119 -73t-145 -27h-164h-387v-41v-63v-47v-134h536q0 -70 -28.5 -132t-79.5 -108t-119 -72.5t-143 -26.5h-166v-37v-99v-47v-63v-41q0 -70 -30 -131.5t-80 -107.5t-118.5 -72.5t-144.5 -26.5 z" />
<glyph unicode="G" d="M0 338v41v63v656v110v41q0 70 28.5 131.5t80 107.5t119 72.5t145.5 26.5h180h207h536q0 -70 -28.5 -131t-79.5 -107t-119 -73t-145 -27h-164h-45h-244h-31q-29 -4 -47 -23.5t-20 -45.5v-15v-20v-47v-99v-411v-58v-41v-47v-20v-14q2 -29 23.5 -47.5t52.5 -22.5h14h90h162 h45h74h12q35 4 56.5 25.5t21.5 52.5v59q0 26 6 55q12 59 45 111.5t81 90.5t109.5 59.5t130.5 21.5v-475v-14q-4 -68 -33.5 -127.5t-79.5 -102.5t-117 -68.5t-142 -25.5h-164h-387q-78 0 -145.5 26.5t-119 72.5t-80 107.5t-28.5 131.5z" />
<glyph unicode="H" horiz-adv-x="1505" d="M0 338v41v110v441v168v110v41v338h373v-307v-31v-6v-35v-63v-47v-58q0 -33 23.5 -54t58.5 -23h4h215h168h2h84v135v110v35v6v338q76 0 144.5 -26.5t118.5 -72.5t79.5 -107.5t29.5 -131.5v-41v-63v-47v-441v-69v-99v-110v-29v-12v-338h-372v403v144q0 33 -23.5 54.5 t-58.5 23.5h-6h-381h-4h-82v-37v-41v-58v-86v-24v-41v-338q-78 0 -145.5 26.5t-119 72.5t-80 107.5t-28.5 131.5z" />
<glyph unicode="I" horiz-adv-x="616" d="M18 -8v338v41v110v99v510v47v61v41q0 70 29 132.5t80 108.5t117.5 72.5t144.5 26.5v-340v-41v-108v-609v-110v-41q0 -70 -28.5 -131.5t-80 -107.5t-119 -72.5t-143.5 -26.5z" />
<glyph unicode="J" horiz-adv-x="1265" d="M0 322v14v117v387v102q76 0 144.5 -26.5t118.5 -72.5t80 -108.5t30 -132.5v-149v-39q0 -33 24.5 -55.5t59.5 -22.5h65h51h29q35 0 59.5 22.5t24.5 55.5v73v99v254v256v47v35v28v41q0 70 29.5 131.5t80 107.5t118 72.5t145.5 26.5v-338v-41v-28v-82v-240v-16v-64v-440v-14 q0 -10 -1 -17.5t-3 -15.5v-2q-4 -20 -6 -29v-4q-4 -6 -5.5 -13.5t-5.5 -15.5v-2q-4 -6 -6 -13t-6 -13q0 -2 -1 -2t-1 -2q-8 -16 -14 -25l-2 -2q-4 -8 -17 -25l-2 -4q-4 -4 -9 -10t-9 -10l-4 -4q-4 -4 -10.5 -9.5t-10.5 -9.5l-4 -4q-6 -6 -22 -18l-5 -2q-10 -8 -24 -17l-2 -2 q-8 -4 -14.5 -7t-12.5 -7q-4 0 -4 -2q-8 -4 -14 -6t-15 -4q-2 -2 -4 -2q-8 -4 -14 -5.5t-14 -5.5h-4q-12 -4 -33 -8h-2q-20 -4 -33 -4h-2q-10 -2 -18.5 -2h-16.5h-2h-45h-68h-51h-149h-11q-74 2 -138 27.5t-113.5 68.5t-79 101.5t-31.5 126.5z" />
<glyph unicode="K" d="M0 0v338v41v110v99v149v113v248v47v63v41q0 59 20.5 110.5t57.5 94.5q70 86 182 117q59 16 113 16v-67v-217v-54v-41v-41l159 144l306 276h86h372l-368 -338l-234 -217l156 -266l37 -61l47 -84l362 -621h-147h-2q-102 0 -186 46t-134 120l-16 29l-104 182l-5 6l-2 2 l-30 53l-174 297l-33 58l-10 18l-19 -18l-61 -58v-96v-150v-110v-41q0 -70 -30 -131.5t-80 -107.5t-118.5 -72.5t-144.5 -26.5z" />
<glyph unicode="L" horiz-adv-x="1437" d="M0 0v338v41v63v656v110v41v338q100 0 186 -45q84 -45 135.5 -122t51.5 -171v-41v-63v-47v-510v-99v-110v-41h387h51h68h45q104 0 189 -46t134 -122q23 -39 36 -81t13 -89h-372h-45h-119h-387h-2h-371z" />
<glyph unicode="M" horiz-adv-x="2154" d="M0 0v338v41v63v47v609v47v63v41q0 70 28.5 131.5t80 107.5t119 72.5t145.5 26.5h180h96h371h45h109h122h277h373v-274v-64v-41v-63v-656v-110v-41v-338q-100 0 -187 45q-84 45 -135 122t-51 171v41v63v47v510v99v110v41h-387h-12v-41v-110v-99v-510v-47v-63v-41 q0 -94 -50.5 -171t-136.5 -122t-186 -45v338v41v110v656v63v41h-41h-303q-35 0 -59.5 -22.5t-24.5 -55.5v-26v-47v-99v-411v-99v-47v-63v-41q0 -94 -51.5 -171t-135.5 -122q-86 -45 -186 -45z" />
<glyph unicode="N" d="M0 338v41v63v47v99v411v99v47v63v41v338h373h166h221h164q102 0 186 -45q86 -45 136 -122t50 -171v-41v-63v-47v-99v-411v-99v-47v-63v-41v-2v2v-338q-100 0 -186 45q-84 43 -134 120t-52 171v2v41v37v26v47v99v411v99v47v26q0 33 -25 55.5t-59 22.5h-80h-17h-190h-14 h-82h-84v-41v-37v-73v-609v-110v-41v-338q-78 0 -145.5 26.5t-119 72.5t-80 107.5t-28.5 131.5z" />
<glyph unicode="O" d="M0 0v338v41v63v656v110v41q0 70 28.5 131.5t80 107.5t119 72.5t145.5 26.5h180h207h164h372v-338v-41v-63v-47v-99v-411v-99v-47v-63v-41q0 -70 -28.5 -131.5t-79.5 -107.5t-119 -72.5t-145 -26.5h-164h-387h-373zM373 338h180h207h80q35 0 59.5 22.5t24.5 55.5v73v656 v63v41h-164h-303q-35 0 -59.5 -22.5t-24.5 -55.5v-26v-47v-99v-411v-99v-47v-63v-41z" />
<glyph unicode="P" horiz-adv-x="1499" d="M-2 338v41v63v47v609v108v41v340h352h21h67h484h2h16q74 -4 138.5 -31.5t112.5 -73.5t75.5 -106.5t27.5 -128.5v-41v-61v-47v-137v-9q-2 -68 -29.5 -126t-75.5 -102t-111.5 -71.5t-137.5 -29.5h-18h-551v-35v-99v-47v-63v-41v-338q-78 0 -145.5 26.5t-119 72.5t-80 107.5 t-28.5 131.5zM371 1038q0 -33 24.5 -55t59.5 -22h383q35 0 59.5 22.5t24.5 54.5v60v47v26q0 33 -25 54.5t-59 21.5h-383h-84v-41v-35v-26v-47v-60z" />
<glyph unicode="Q" horiz-adv-x="1499" d="M0 340v41v61v47v99v411v99v47v63v41v338h373h166h206h181q76 0 143.5 -26.5t118.5 -72.5t79.5 -107.5t28.5 -131.5v-41v-110v-656v-61v-41v-340h-370h-387h-166q-78 0 -145.5 26.5t-118 72.5t-80 107.5t-29.5 133.5zM373 416q0 -33 24.5 -54.5t59.5 -21.5h82h22v168h166 q109 0 199 -51v32v99v411v99v47v26q0 33 -26 55.5t-60 22.5h-301h-166v-41v-63v-656v-73z" />
<glyph unicode="R" d="M0 338v43v61v47v609v110v41v338h352h19h2h67h484h16h10q88 -6 162 -46t121 -103q4 -4 7 -10.5t7 -10.5q49 -78 49 -168v-41v-63v-47v-135v-9q-2 -53 -20.5 -102t-50.5 -90q29 -37 47 -81t22 -93h2v-25v-182v-43v-338h-356h-16v416v73v58q0 33 -25 54.5t-59 21.5h-383h-84 v-35v-41v-58v-47v-26v-35v-43v-338h-21q-18 2 -36.5 4t-34.5 6q-10 2 -17.5 4t-15.5 6h-2q-8 4 -15.5 5.5t-15.5 5.5q0 2 -2 2q-8 4 -14 6t-15 6q0 2 -2 2q-6 4 -13 8t-13 8l-2 3q-8 4 -25 16l-4 4t-10 9t-11 9q-2 0 -2 1t-2 1q-6 8 -18 21l-4 4q-4 6 -8 11t-9 12l-4 4 t-7 10t-7 12q0 2 -1 2t-1 2l-12 25q-2 2 -2 4q-8 14 -11 27q0 2 -1 2t-1 2q-2 8 -6 28q-2 0 -2 2q-4 20 -4 31v2q-2 10 -2 31zM373 1038q0 -31 24.5 -53t59.5 -22h383q25 0 47 12l2 2q8 4 10 8l6 6l4 4q4 8 6 11q0 2 1.5 2t1.5 2q2 4 2 6t2 6v2q2 4 2 12v2v4v56v47v26 q0 10 -2 15v2q0 4 -4 12v2q-4 8 -7 10l-2 2q-2 4 -4 5.5t-4 5.5l-2 2q-4 2 -10 8h-2q-6 6 -13 6l-2 2q-16 6 -32 6h-320h-63h-84v-41v-37v-26v-35v-12v-60z" />
<glyph unicode="S" d="M0 0v10q2 43 14.5 84t34.5 76q49 78 134 124t190 46h67h6h3h8h6h8h68h14h29h133h28h17h16h49h9h6h8q8 0 12 2h2q2 0 4 1t4 1q2 2 7 2q2 2 3 2t3 2q4 0 8 4l2 2q4 2 10 9v2q6 2 6 6l4 4q4 8 5 8q0 2 2 4q0 4 1 5t1 5l2 4v13v26v33v2v12v33v27q0 31 -23.5 53.5t-58.5 22.5 h-398h-71h-19q-37 2 -70.5 10t-66.5 20l-2 2q-8 4 -29 13q0 2 -2 2q-8 4 -14 8l-12 8q-2 0 -4 2q-6 4 -11.5 7t-9.5 8q-2 2 -4 3t-4 3q-4 4 -8 7t-8 7l-9 8l-12 12l-2 3q-4 6 -14 16q-4 4 -6 8q-4 4 -5.5 8t-5.5 8q-2 2 -3 4.5t-3 4.5q-8 12 -10 16l-6 12q-2 4 -3 8.5 t-3 8.5l-7 14q-4 8 -6 14q-2 4 -2 8.5t-2 8.5t-2 6t-2 6q0 6 -1 11t-1 12q-2 4 -2 10q-2 10 -2 31v2v41v61v31v16v94v41v6v5q0 10 1 17t3 15q0 10 4 31q2 2 2 4q2 4 2 6t2 6v4q2 2 2 9h2v2q0 4 2 4q2 12 9 22v2q2 0 2 2q2 2 2 4.5t2 4.5l6 12l2 2v2q2 2 2 4q4 4 4 6q4 4 6 8 t6 9l2 2q8 12 17 20v2q2 0 2 2l14 15q12 12 21 18l6 6q12 8 18 15q43 31 95.5 49t111.5 22h6h19h67h99h14h190h17h164h18h2h352v-8q-4 -90 -49 -160q-49 -78 -134 -124t-189 -46h-68h-6h-2h-8h-6h-9h-65h-17h-28h-133h-29h-14h-19h-49h-8h-6h-8q-8 0 -13 -2h-2q-2 0 -4 -1 t-4 -1q-2 -2 -6 -2q-2 -2 -3 -2t-3 -2l-8 -4l-3 -2q-4 -2 -5 -4t-5 -4v-2l-6 -6q-4 -4 -4 -5q0 -4 -4 -8q0 -4 -2 -4q0 -4 -1 -5t-1 -5q0 -2 -2 -4v-12v-3v-24v-33v-2v-14v-31v-27q0 -31 23.5 -53t58.5 -22h397h72h2h16q72 -2 137 -33h2q14 -6 29 -14h2q8 -4 14.5 -8.5 t12.5 -8.5q2 0 4 -2q6 -4 11 -7t9 -7q2 -2 4 -3t4 -3q4 -4 8.5 -7.5t8.5 -7.5q2 -2 4 -3t4 -5l12 -12l2 -2q4 -6 15 -17q2 -2 3 -4t3 -4q6 -8 10 -16q2 -2 6 -10q6 -6 10 -15l7 -12q2 -8 8 -16q2 -4 2 -7.5t2 -7.5q4 -8 6 -14q2 -4 2 -9t2 -10q2 -4 2 -5t2 -5q0 -8 4 -24v-9 q2 -10 2 -32v-41v-62v-47v-135v-6v-4q0 -10 -1 -17.5t-1 -15.5q-4 -12 -4 -18q0 -2 -1 -4.5t-1 -4.5v-4q0 -2 -2 -4q0 -6 -4 -14v-2q-2 -2 -2 -8l-2 -2q0 -4 -2 -5q-4 -16 -8 -22v-2l-2 -2t-2 -4t-2 -4l-7 -13l-2 -2v-2q-2 -2 -2 -4q-4 -4 -4 -6q-2 -2 -3 -4t-3 -4 q-2 -4 -6 -8v-2q-6 -8 -18 -21v-2q-2 0 -3 -2q-47 -53 -115.5 -88t-150.5 -39h-6h-18h-68h-96h-17h-190h-14h-166h-19h-2h-352z" />
<glyph unicode="T" horiz-adv-x="1370" d="M-78 1249q0 70 29 131.5t80 107.5t118.5 73t145.5 26h180h207h537q0 -70 -29 -131t-80 -107t-118.5 -73t-145.5 -27h-90v-41v-110v-609v-110v-41q0 -70 -29 -131.5t-80 -107.5t-118.5 -72.5t-143.5 -26.5v338v41v110v99v510v47v63v41h-90h-373z" />
<glyph unicode="U" d="M0 338v41v63v47v99v411v99v47v63v41v338q100 0 186 -45q-2 -2 -3 -2t-3 -2q2 2 3 2t3 2q84 -45 134.5 -120.5t52.5 -170.5v-2v-41v-37v-26v-47v-99v-411v-99v-47v-26q0 -33 24.5 -55.5t59.5 -22.5h82h14h190h17h80q35 0 59.5 22.5t24.5 55.5v26v47v99v411v99v47v63v41v2 q0 2 2 2v19v4q0 4 1 9t1 9v2q4 16 4 21v2l6 18q0 4 2 4q0 6 4 15q0 2 1 3t1 3q4 10 8 18.5t9 18.5l2 4q4 4 8 12q2 2 2 3t2 3q4 8 8 13l2 4q4 4 6 7t6 7t5 4q2 4 8 10l6 7l10 10l4 4q4 4 7 6t8 6l4 4q4 2 6 4t6 4q4 4 6 5q4 4 6 5t4 3t3 2t3 2q4 2 8.5 4t8.5 4q0 2 2 2 q2 2 3 2t3 2q86 45 186 45v-336v-2v-41v-63v-47v-99v-411v-99v-47v-63v-41q0 -94 -50 -171t-136 -122q-84 -45 -186 -45h-164h-221h-166q-100 0 -187 45q-84 45 -135 122t-51 171z" />
<glyph unicode="V" d="M0 338v41v63v47v99v411v99v47v63v41v2v-2v338q100 0 186 -45q84 -45 134.5 -120.5t52.5 -170.5v-2v-41v-37v-26v-47v-99v-411v-99v-47v-26q0 -33 24.5 -55.5t59.5 -22.5h82h14h190h17h80h84v41v37v73v609v110v41v338q78 0 145.5 -26.5t118.5 -72.5t79.5 -107.5 t28.5 -131.5v-41v-63v-47v-99v-411v-99v-47v-63v-41v-338h-372h-164h-221h-166q-100 0 -187 45q-84 45 -135 122t-51 171z" />
<glyph unicode="W" horiz-adv-x="2154" d="M0 338v41v63v47v609v47v63v41v338q100 0 186 -45q84 -45 135.5 -122t51.5 -171v-41v-63v-47v-99v-411v-99v-47v-26q0 -33 24.5 -55.5t59.5 -22.5h303h41v41v63v656v110v41v338q100 0 186 -45t136.5 -122t50.5 -171v-41v-63v-47v-510v-99v-110v-41h12h387v41v110v99v510 v47v63v41q0 94 51 171t135 122q86 45 187 45v-338v-41v-110v-656v-63v-41v-64v-274h-373h-277h-122h-109h-45h-371h-96h-180q-78 0 -145.5 26.5t-119 72.5t-80 107.5t-28.5 131.5z" />
<glyph unicode="X" d="M0 0l463 793l-313 536l-150 258h150q98 0 179 -41t132 -110q20 -31 35 -60l153 -264l275 475h372l-462 -794l315 -537l147 -256h-147q-104 0 -188 46t-134 120l-16 29l-162 280l-276 -475h-373z" />
<glyph unicode="Y" d="M0 1587h150q98 0 179 -41t132 -110q16 -23 31 -54q2 -2 2 -3t2 -3l153 -264l185 320l90 155h372l-462 -794v-304v-110v-41q0 -70 -29 -131.5t-80 -107.5t-118.5 -72.5t-143.5 -26.5v338v41v110v99v205l-313 536z" />
<glyph unicode="Z" horiz-adv-x="1499" d="M0 0l78 131l119 207l364 625l166 286h-12h-133h-29h-14h-68h-8h-6h-8h-3h-6h-67q-104 0 -189.5 46t-134.5 122q-23 37 -35 77t-14 85v8h352h2h19h166h14h190h17h96h68h372l-77 -133l-119 -205l-365 -624l-166 -287h13h133h28h17h65h9h6h8h2h6h68q104 0 189 -46t134 -122 q47 -74 49 -162v-8h-352h-2h-18h-164h-17h-190h-14h-2h-537z" />
<glyph unicode="a" d="M0 336v41v63v656v110v41q0 68 27.5 127.5t75 105.5t112 73.5t137.5 31.5h19h2h67h484h16q74 -4 139.5 -31.5t113.5 -72.5t75.5 -105.5t27.5 -128.5v-41v-110v-656v-63v-41v-338q-78 0 -145.5 26.5t-117.5 72.5t-79.5 107.5t-29.5 131.5v41v63v47v74h-551v-74v-47v-63v-41 v-338q-78 0 -145.5 26.5t-119 72.5t-80 107.5t-28.5 131.5zM373 899h67h17h383h84v76v2v20v99v47v24v4q0 31 -25 53.5t-59 22.5h-383q-35 0 -59.5 -22.5t-24.5 -55.5v-26v-47v-99v-20v-78z" />
<glyph unicode="b" horiz-adv-x="1499" d="M0 336v41v63v47v144v465v110v41v338h373h67h484h16q74 -4 139.5 -31.5t113.5 -72.5t75.5 -105.5t27.5 -128.5v-41v-110v-37v-19q-4 -70 -35.5 -128t-84.5 -103q51 -41 82.5 -99.5t35.5 -125.5h2v-23v-2v-182v-41q0 -68 -27.5 -128.5t-75.5 -105.5t-113.5 -73.5 t-139.5 -30.5h-16h-551h-21q-74 4 -138 31.5t-111.5 74t-75 105.5t-27.5 127zM373 414q0 -33 24.5 -55.5t59.5 -22.5h383q35 0 59.5 22.5t24.5 55.5v131q0 31 -25 53.5t-59 22.5h-383q-35 0 -59.5 -23t-24.5 -53v-58v-47v-26zM373 1036q0 -33 24.5 -54t59.5 -21h383 q35 0 59.5 21.5t24.5 53.5v4v15v41v47v26q0 33 -25 55.5t-59 22.5h-320h-63h-84v-78v-26v-35v-12v-60z" />
<glyph unicode="c" d="M0 336v41v63v656v110v41q0 70 28.5 131.5t80 107.5t119 72.5t145.5 27.5h180h207h536q0 -70 -28.5 -131.5t-79.5 -108t-119 -73t-145 -26.5h-164h-45h-244h-31q-29 -4 -47 -23.5t-20 -45.5v-15v-20v-47v-99v-411v-99v-47v-20v-14q2 -29 23.5 -47.5t52.5 -22.5h14h90h162 h45h536q0 -70 -28.5 -131.5t-79.5 -107.5t-119 -72.5t-145 -26.5h-164h-387q-78 0 -145.5 26.5t-119 72.5t-80 107.5t-28.5 131.5z" />
<glyph unicode="d" d="M0 -2v338v41v63v47v609v47v63v41q0 70 28.5 131.5t80 107.5t119 72.5t145.5 26.5h180h207h164q76 0 143.5 -26.5t117.5 -71.5t79.5 -105.5t31.5 -130.5v-137v-778q0 -70 -28.5 -131.5t-79.5 -107.5t-119 -72.5t-145 -26.5h-164h-387h-373zM373 336h180h207h80 q35 0 59.5 22.5t24.5 55.5v755q0 33 -25 55.5t-59 22.5h-80h-303q-35 0 -59.5 -22.5t-24.5 -55.5v-26v-47v-99v-411v-99v-47v-63v-41z" />
<glyph unicode="e" horiz-adv-x="1505" d="M0 336v41v63v656v110v41v339h373h180h207h536q0 -70 -28.5 -131.5t-79.5 -108t-119 -73t-145 -26.5h-164h-387v-41v-63v-47v-135h536q0 -104 -60.5 -186.5t-158.5 -123.5q-72 -28 -146 -28h-5h-166v-37v-99v-47v-26q0 -33 24.5 -55.5t59.5 -22.5h96h137h70h536 q0 -70 -28.5 -131.5t-79.5 -107.5t-119 -72.5t-145 -26.5h-164h-387q-78 0 -145.5 26.5t-119 72.5t-80 107.5t-28.5 131.5z" />
<glyph unicode="f" d="M0 0v338v41v63v656v110v41v338h373h180h207h536q0 -70 -28.5 -131t-79.5 -107t-119 -73t-145 -27h-164h-387v-41v-63v-47v-135h536q0 -70 -28.5 -131.5t-79.5 -107.5t-119 -72.5t-143 -26.5h-166v-37v-99v-47v-63v-41q0 -70 -30 -131.5t-80 -107.5t-118.5 -72.5 t-144.5 -26.5z" />
<glyph unicode="g" d="M0 338v41v63v656v110v41q0 70 28.5 131.5t80 107.5t119 72.5t145.5 26.5h180h207h536q0 -70 -28.5 -131t-79.5 -107t-119 -73t-145 -27h-164h-45h-244h-31q-29 -4 -47 -23.5t-20 -45.5v-15v-20v-47v-99v-411v-58v-41v-47v-20v-14q2 -29 23.5 -47.5t52.5 -22.5h14h90h162 h45h74h12q35 4 56.5 25.5t21.5 52.5v59q0 26 6 55q12 59 45 111.5t81 90.5t109.5 59.5t130.5 21.5v-475v-14q-4 -68 -33.5 -127.5t-79.5 -102.5t-117 -68.5t-142 -25.5h-164h-387q-78 0 -145.5 26.5t-119 72.5t-80 107.5t-28.5 131.5z" />
<glyph unicode="h" horiz-adv-x="1509" d="M0 338v41v110v441v168v110v41v338h373v-307v-31v-6v-35v-63v-47v-58q0 -33 23.5 -54t58.5 -23h4h215h168h2h84v135v110v35v6v338q76 0 144.5 -26.5t118.5 -72.5t79.5 -107.5t29.5 -131.5v-41v-63v-47v-441v-69v-99v-110v-29v-12v-338h-372v403v144q0 33 -23.5 54.5 t-58.5 23.5h-6h-381h-4h-82v-37v-41v-58v-86v-24v-41v-338q-78 0 -145.5 26.5t-119 72.5t-80 107.5t-28.5 131.5z" />
<glyph unicode="i" horiz-adv-x="614" d="M18 -8v338v41v110v99v510v47v61v41q0 70 29 132.5t80 108.5t117.5 72.5t144.5 26.5v-340v-41v-108v-609v-110v-41q0 -70 -28.5 -131.5t-80 -107.5t-119 -72.5t-143.5 -26.5z" />
<glyph unicode="j" horiz-adv-x="1267" d="M0 322v14v117v387v102q76 0 144.5 -26.5t118.5 -72.5t80 -108.5t30 -132.5v-149v-39q0 -33 24.5 -55.5t59.5 -22.5h65h51h29q35 0 59.5 22.5t24.5 55.5v73v99v254v256v47v35v28v41q0 70 29.5 131.5t80 107.5t118 72.5t145.5 26.5v-338v-41v-28v-82v-240v-16v-64v-440v-14 q0 -10 -1 -17.5t-3 -15.5v-2q-4 -20 -6 -29v-4q-4 -6 -5.5 -13.5t-5.5 -15.5v-2q-4 -6 -6 -13t-6 -13q0 -2 -1 -2t-1 -2q-8 -16 -14 -25l-2 -2q-4 -8 -17 -25l-2 -4q-4 -4 -9 -10t-9 -10l-4 -4q-4 -4 -10.5 -9.5t-10.5 -9.5l-4 -4q-6 -6 -22 -18l-5 -2q-10 -8 -24 -17l-2 -2 q-8 -4 -14.5 -7t-12.5 -7q-4 0 -4 -2q-8 -4 -14 -6t-15 -4q-2 -2 -4 -2q-8 -4 -14 -5.5t-14 -5.5h-4q-12 -4 -33 -8h-2q-20 -4 -33 -4h-2q-10 -2 -18.5 -2h-16.5h-2h-45h-68h-51h-149h-11q-74 2 -138 27.5t-113.5 68.5t-79 101.5t-31.5 126.5z" />
<glyph unicode="k" d="M0 0v338v41v110v99v149v113v248v47v63v41q0 59 20.5 110.5t57.5 94.5q70 86 182 117q59 16 113 16v-67v-217v-54v-41v-41l159 144l306 276h86h372l-368 -338l-234 -217l156 -266l37 -61l47 -84l362 -621h-147h-2q-102 0 -186 46t-134 120l-16 29l-104 182l-5 6l-2 2 l-30 53l-174 297l-33 58l-10 18l-19 -18l-61 -58v-96v-150v-110v-41q0 -70 -30 -131.5t-80 -107.5t-118.5 -72.5t-144.5 -26.5z" />
<glyph unicode="l" horiz-adv-x="1439" d="M0 0v338v41v63v656v110v41v338q100 0 186 -45q84 -45 135.5 -122t51.5 -171v-41v-63v-47v-510v-99v-110v-41h387h51h68h45q104 0 189 -46t134 -122q23 -39 36 -81t13 -89h-372h-45h-119h-387h-2h-371z" />
<glyph unicode="m" horiz-adv-x="2154" d="M0 0v338v41v63v47v609v47v63v41q0 70 28.5 131.5t80 107.5t119 72.5t145.5 26.5h180h96h371h45h109h122h277h373v-274v-64v-41v-63v-656v-110v-41v-338q-100 0 -187 45q-84 45 -135 122t-51 171v41v63v47v510v99v110v41h-387h-12v-41v-110v-99v-510v-47v-63v-41 q0 -94 -50.5 -171t-136.5 -122t-186 -45v338v41v110v656v63v41h-41h-303q-35 0 -59.5 -22.5t-24.5 -55.5v-26v-47v-99v-411v-99v-47v-63v-41q0 -94 -51.5 -171t-135.5 -122q-86 -45 -186 -45z" />
<glyph unicode="n" horiz-adv-x="1505" d="M0 338v41v63v47v99v411v99v47v63v41v338h373h166h221h164q102 0 186 -45q86 -45 136 -122t50 -171v-41v-63v-47v-99v-411v-99v-47v-63v-41v-2v2v-338q-100 0 -186 45q-84 43 -134 120t-52 171v2v41v37v26v47v99v411v99v47v26q0 33 -25 55.5t-59 22.5h-80h-17h-190h-14 h-82h-84v-41v-37v-73v-609v-110v-41v-338q-78 0 -145.5 26.5t-119 72.5t-80 107.5t-28.5 131.5z" />
<glyph unicode="o" horiz-adv-x="1505" d="M0 0v338v41v63v656v110v41q0 70 28.5 131.5t80 107.5t119 72.5t145.5 26.5h180h207h164h372v-338v-41v-63v-47v-99v-411v-99v-47v-63v-41q0 -70 -28.5 -131.5t-79.5 -107.5t-119 -72.5t-145 -26.5h-164h-387h-373zM373 338h180h207h80q35 0 59.5 22.5t24.5 55.5v73v656 v63v41h-164h-303q-35 0 -59.5 -22.5t-24.5 -55.5v-26v-47v-99v-411v-99v-47v-63v-41z" />
<glyph unicode="p" horiz-adv-x="1501" d="M-2 338v41v63v47v609v108v41v340h352h21h67h484h2h16q74 -4 138.5 -31.5t112.5 -73.5t75.5 -106.5t27.5 -128.5v-41v-61v-47v-137v-9q-2 -68 -29.5 -126t-75.5 -102t-111.5 -71.5t-137.5 -29.5h-18h-551v-35v-99v-47v-63v-41v-338q-78 0 -145.5 26.5t-119 72.5t-80 107.5 t-28.5 131.5zM371 1038q0 -33 24.5 -55t59.5 -22h383q35 0 59.5 22.5t24.5 54.5v60v47v26q0 33 -25 54.5t-59 21.5h-383h-84v-41v-35v-26v-47v-60z" />
<glyph unicode="q" d="M0 340v41v61v47v99v411v99v47v63v41v338h373h166h206h181q76 0 143.5 -26.5t118.5 -72.5t79.5 -107.5t28.5 -131.5v-41v-110v-656v-61v-41v-340h-370h-387h-166q-78 0 -145.5 26.5t-118 72.5t-80 107.5t-29.5 133.5zM373 416q0 -33 24.5 -54.5t59.5 -21.5h82h22v168h166 q109 0 199 -51v32v99v411v99v47v26q0 33 -26 55.5t-60 22.5h-301h-166v-41v-63v-656v-73z" />
<glyph unicode="r" horiz-adv-x="1505" d="M0 338v43v61v47v609v110v41v338h352h19h2h67h484h16h10q88 -6 162 -46t121 -103q4 -4 7 -10.5t7 -10.5q49 -78 49 -168v-41v-63v-47v-135v-9q-2 -53 -20.5 -102t-50.5 -90q29 -37 47 -81t22 -93h2v-25v-182v-43v-338h-356h-16v416v73v58q0 33 -25 54.5t-59 21.5h-383h-84 v-35v-41v-58v-47v-26v-35v-43v-338h-21q-18 2 -36.5 4t-34.5 6q-10 2 -17.5 4t-15.5 6h-2q-8 4 -15.5 5.5t-15.5 5.5q0 2 -2 2q-8 4 -14 6t-15 6q0 2 -2 2q-6 4 -13 8t-13 8l-2 3q-8 4 -25 16l-4 4t-10 9t-11 9q-2 0 -2 1t-2 1q-6 8 -18 21l-4 4q-4 6 -8 11t-9 12l-4 4 t-7 10t-7 12q0 2 -1 2t-1 2l-12 25q-2 2 -2 4q-8 14 -11 27q0 2 -1 2t-1 2q-2 8 -6 28q-2 0 -2 2q-4 20 -4 31v2q-2 10 -2 31zM373 1038q0 -31 24.5 -53t59.5 -22h383q25 0 47 12l2 2q8 4 10 8l6 6l4 4q4 8 6 11q0 2 1.5 2t1.5 2q2 4 2 6t2 6v2q2 4 2 12v2v4v56v47v26 q0 10 -2 15v2q0 4 -4 12v2q-4 8 -7 10l-2 2q-2 4 -4 5.5t-4 5.5l-2 2q-4 2 -10 8h-2q-6 6 -13 6l-2 2q-16 6 -32 6h-320h-63h-84v-41v-37v-26v-35v-12v-60z" />
<glyph unicode="s" horiz-adv-x="1505" d="M0 0v10q2 43 14.5 84t34.5 76q49 78 134 124t190 46h67h6h3h8h6h8h68h14h29h133h28h17h16h49h9h6h8q8 0 12 2h2q2 0 4 1t4 1q2 2 7 2q2 2 3 2t3 2q4 0 8 4l2 2q4 2 10 9v2q6 2 6 6l4 4q4 8 5 8q0 2 2 4q0 4 1 5t1 5l2 4v13v26v33v2v12v33v27q0 31 -23.5 53.5t-58.5 22.5 h-398h-71h-19q-37 2 -70.5 10t-66.5 20l-2 2q-8 4 -29 13q0 2 -2 2q-8 4 -14 8l-12 8q-2 0 -4 2q-6 4 -11.5 7t-9.5 8q-2 2 -4 3t-4 3q-4 4 -8 7t-8 7l-9 8l-12 12l-2 3q-4 6 -14 16q-4 4 -6 8q-4 4 -5.5 8t-5.5 8q-2 2 -3 4.5t-3 4.5q-8 12 -10 16l-6 12q-2 4 -3 8.5 t-3 8.5l-7 14q-4 8 -6 14q-2 4 -2 8.5t-2 8.5t-2 6t-2 6q0 6 -1 11t-1 12q-2 4 -2 10q-2 10 -2 31v2v41v61v31v16v94v41v6v5q0 10 1 17t3 15q0 10 4 31q2 2 2 4q2 4 2 6t2 6v4q2 2 2 9h2v2q0 4 2 4q2 12 9 22v2q2 0 2 2q2 2 2 4.5t2 4.5l6 12l2 2v2q2 2 2 4q4 4 4 6q4 4 6 8 t6 9l2 2q8 12 17 20v2q2 0 2 2l14 15q12 12 21 18l6 6q12 8 18 15q43 31 95.5 49t111.5 22h6h19h67h99h14h190h17h164h18h2h352v-8q-4 -90 -49 -160q-49 -78 -134 -124t-189 -46h-68h-6h-2h-8h-6h-9h-65h-17h-28h-133h-29h-14h-19h-49h-8h-6h-8q-8 0 -13 -2h-2q-2 0 -4 -1 t-4 -1q-2 -2 -6 -2q-2 -2 -3 -2t-3 -2l-8 -4l-3 -2q-4 -2 -5 -4t-5 -4v-2l-6 -6q-4 -4 -4 -5q0 -4 -4 -8q0 -4 -2 -4q0 -4 -1 -5t-1 -5q0 -2 -2 -4v-12v-3v-24v-33v-2v-14v-31v-27q0 -31 23.5 -53t58.5 -22h397h72h2h16q72 -2 137 -33h2q14 -6 29 -14h2q8 -4 14.5 -8.5 t12.5 -8.5q2 0 4 -2q6 -4 11 -7t9 -7q2 -2 4 -3t4 -3q4 -4 8.5 -7.5t8.5 -7.5q2 -2 4 -3t4 -5l12 -12l2 -2q4 -6 15 -17q2 -2 3 -4t3 -4q6 -8 10 -16q2 -2 6 -10q6 -6 10 -15l7 -12q2 -8 8 -16q2 -4 2 -7.5t2 -7.5q4 -8 6 -14q2 -4 2 -9t2 -10q2 -4 2 -5t2 -5q0 -8 4 -24v-9 q2 -10 2 -32v-41v-62v-47v-135v-6v-4q0 -10 -1 -17.5t-1 -15.5q-4 -12 -4 -18q0 -2 -1 -4.5t-1 -4.5v-4q0 -2 -2 -4q0 -6 -4 -14v-2q-2 -2 -2 -8l-2 -2q0 -4 -2 -5q-4 -16 -8 -22v-2l-2 -2t-2 -4t-2 -4l-7 -13l-2 -2v-2q-2 -2 -2 -4q-4 -4 -4 -6q-2 -2 -3 -4t-3 -4 q-2 -4 -6 -8v-2q-6 -8 -18 -21v-2q-2 0 -3 -2q-47 -53 -115.5 -88t-150.5 -39h-6h-18h-68h-96h-17h-190h-14h-166h-19h-2h-352z" />
<glyph unicode="t" horiz-adv-x="1370" d="M-78 1249q0 70 29 131.5t80 107.5t118.5 73t145.5 26h180h207h537q0 -70 -29 -131t-80 -107t-118.5 -73t-145.5 -27h-90v-41v-110v-609v-110v-41q0 -70 -29 -131.5t-80 -107.5t-118.5 -72.5t-143.5 -26.5v338v41v110v99v510v47v63v41h-90h-373z" />
<glyph unicode="u" d="M0 338v41v63v47v99v411v99v47v63v41v338q100 0 186 -45q-2 -2 -3 -2t-3 -2q2 2 3 2t3 2q84 -45 134.5 -120.5t52.5 -170.5v-2v-41v-37v-26v-47v-99v-411v-99v-47v-26q0 -33 24.5 -55.5t59.5 -22.5h82h14h190h17h80q35 0 59.5 22.5t24.5 55.5v26v47v99v411v99v47v63v41v2 q0 2 2 2v19v4q0 4 1 9t1 9v2q4 16 4 21v2l6 18q0 4 2 4q0 6 4 15q0 2 1 3t1 3q4 10 8 18.5t9 18.5l2 4q4 4 8 12q2 2 2 3t2 3q4 8 8 13l2 4q4 4 6 7t6 7t5 4q2 4 8 10l6 7l10 10l4 4q4 4 7 6t8 6l4 4q4 2 6 4t6 4q4 4 6 5q4 4 6 5t4 3t3 2t3 2q4 2 8.5 4t8.5 4q0 2 2 2 q2 2 3 2t3 2q86 45 186 45v-336v-2v-41v-63v-47v-99v-411v-99v-47v-63v-41q0 -94 -50 -171t-136 -122q-84 -45 -186 -45h-164h-221h-166q-100 0 -187 45q-84 45 -135 122t-51 171z" />
<glyph unicode="v" d="M0 338v41v63v47v99v411v99v47v63v41v2v-2v338q100 0 186 -45q84 -45 134.5 -120.5t52.5 -170.5v-2v-41v-37v-26v-47v-99v-411v-99v-47v-26q0 -33 24.5 -55.5t59.5 -22.5h82h14h190h17h80h84v41v37v73v609v110v41v338q78 0 145.5 -26.5t118.5 -72.5t79.5 -107.5 t28.5 -131.5v-41v-63v-47v-99v-411v-99v-47v-63v-41v-338h-372h-164h-221h-166q-100 0 -187 45q-84 45 -135 122t-51 171z" />
<glyph unicode="w" horiz-adv-x="2154" d="M0 338v41v63v47v609v47v63v41v338q100 0 186 -45q84 -45 135.5 -122t51.5 -171v-41v-63v-47v-99v-411v-99v-47v-26q0 -33 24.5 -55.5t59.5 -22.5h303h41v41v63v656v110v41v338q100 0 186 -45t136.5 -122t50.5 -171v-41v-63v-47v-510v-99v-110v-41h12h387v41v110v99v510 v47v63v41q0 94 51 171t135 122q86 45 187 45v-338v-41v-110v-656v-63v-41v-64v-274h-373h-277h-122h-109h-45h-371h-96h-180q-78 0 -145.5 26.5t-119 72.5t-80 107.5t-28.5 131.5z" />
<glyph unicode="x" d="M0 0l463 793l-313 536l-150 258h150q98 0 179 -41t132 -110q20 -31 35 -60l153 -264l275 475h372l-462 -794l315 -537l147 -256h-147q-104 0 -188 46t-134 120l-16 29l-162 280l-276 -475h-373z" />
<glyph unicode="y" d="M0 1587h150q98 0 179 -41t132 -110q16 -23 31 -54q2 -2 2 -3t2 -3l153 -264l185 320l90 155h372l-462 -794v-304v-110v-41q0 -70 -29 -131.5t-80 -107.5t-118.5 -72.5t-143.5 -26.5v338v41v110v99v205l-313 536z" />
<glyph unicode="z" horiz-adv-x="1499" d="M0 0l78 131l119 207l364 625l166 286h-12h-133h-29h-14h-68h-8h-6h-8h-3h-6h-67q-104 0 -189.5 46t-134.5 122q-23 37 -35 77t-14 85v8h352h2h19h166h14h190h17h96h68h372l-77 -133l-119 -205l-365 -624l-166 -287h13h133h28h17h65h9h6h8h2h6h68q104 0 189 -46t134 -122 q47 -74 49 -162v-8h-352h-2h-18h-164h-17h-190h-14h-2h-537z" />
<glyph unicode="&#x2000;" horiz-adv-x="793" />
<glyph unicode="&#x2001;" horiz-adv-x="1587" />
<glyph unicode="&#x2002;" horiz-adv-x="793" />
<glyph unicode="&#x2003;" horiz-adv-x="1587" />
<glyph unicode="&#x2004;" horiz-adv-x="529" />
<glyph unicode="&#x2005;" horiz-adv-x="396" />
<glyph unicode="&#x2006;" horiz-adv-x="264" />
<glyph unicode="&#x2007;" horiz-adv-x="264" />
<glyph unicode="&#x2008;" horiz-adv-x="198" />
<glyph unicode="&#x2009;" horiz-adv-x="317" />
<glyph unicode="&#x200a;" horiz-adv-x="88" />
<glyph unicode="&#x202f;" horiz-adv-x="317" />
<glyph unicode="&#x205f;" horiz-adv-x="396" />
<glyph unicode="&#x25fc;" horiz-adv-x="1587" d="M0 0v1587h1587v-1587h-1587z" />
</font>
</defs>
</svg>
